<?xml version="1.0" encoding="UTF-8"?>
<svg width="480px" height="82px" viewBox="0 0 480 82" version="1.1" xmlns="http://www.w3.org/2000/svg" xmlns:xlink="http://www.w3.org/1999/xlink">
    <!-- Generator: Sketch 64 (93537) - https://sketch.com -->
    <title>Artboard</title>
    <desc>Created with Sketch.</desc>
    <defs>
        <polygon id="path-1" points="0 0 253.5 0 253.5 41.9996 0 41.9996"></polygon>
        <polygon id="path-3" points="0.5 0 58.5 0 58.5 40.9996 0.5 40.9996"></polygon>
        <polygon id="path-5" points="0.5 0 49.5 0 49.5 40.9996 0.5 40.9996"></polygon>
        <polygon id="path-7" points="0.5 0 11.5 0 11.5 40.9996 0.5 40.9996"></polygon>
    </defs>
    <g id="Artboard" stroke="none" stroke-width="1" fill="none" fill-rule="evenodd">
        <g id="Group-15" transform="translate(16.000000, 20.000000)">
            <g id="Group-3">
                <mask id="mask-2" fill="white">
                    <use xlink:href="#path-1"></use>
                </mask>
                <g id="Clip-2"></g>
                <path d="M242.5,16.5166 C242.5,17.8876 241.388,18.9996 240.017,18.9996 L214.558,18.9996 C214.526,18.9996 214.5,18.9746 214.5,18.9426 L214.5,11.0576 C214.5,11.0256 214.526,10.9996 214.558,10.9996 L240.017,10.9996 C241.388,10.9996 242.5,12.1126 242.5,13.4836 L242.5,16.5166 Z M251.938,20.8746 C252.947,19.6626 253.5,18.1366 253.5,16.5596 L253.5,9.4266 C253.5,4.2206 249.279,-0.0004 244.073,-0.0004 L150.558,-0.0004 C150.526,-0.0004 150.5,0.0256 150.5,0.0576 L150.5,29.8006 C150.5,29.8586 150.424,29.8806 150.394,29.8316 L131.517,0.0276 C131.506,0.0096 131.488,-0.0004 131.468,-0.0004 L109.524,-0.0004 C109.509,-0.0004 109.494,0.0056 109.483,0.0166 L91.541,17.9586 C91.518,17.9816 91.482,17.9816 91.459,17.9586 L73.517,0.0166 C73.506,0.0056 73.491,-0.0004 73.476,-0.0004 L29.164,-0.0004 C23.827,-0.0004 19.5,4.3276 19.5,9.6636 L19.5,17.5586 C19.5,22.2206 23.28,25.9996 27.942,25.9996 L55.355,25.9996 C56.377,25.9996 57.342,26.6976 57.48,27.7096 C57.649,28.9426 56.69,29.9936 55.491,29.9826 L0.058,29.5006 C0.026,29.4996 0,29.5266 0,29.5586 L0,41.4426 C0,41.4746 0.026,41.4996 0.058,41.4996 L60.942,41.4996 C64.564,41.4996 67.5,38.5646 67.5,34.9426 L67.5,23.8236 C67.5,18.9506 63.549,14.9996 58.676,14.9996 L32.653,14.9996 C31.63,14.9996 30.664,14.3046 30.521,13.2906 C30.347,12.0566 31.3,10.9996 32.5,10.9996 L67.476,10.9996 C67.491,10.9996 67.506,11.0056 67.517,11.0166 L85.483,28.9836 C85.494,28.9946 85.5,29.0086 85.5,29.0246 L85.5,41.9426 C85.5,41.9746 85.526,41.9996 85.558,41.9996 L96.442,41.9996 C96.474,41.9996 96.5,41.9746 96.5,41.9426 L96.5,29.0236 C96.5,29.0076 96.506,28.9946 96.516,28.9836 L113.4,11.1056 C113.436,11.0676 113.5,11.0926 113.5,11.1456 L113.5,41.9426 C113.5,41.9746 113.526,41.9996 113.558,41.9996 L124.442,41.9996 C124.474,41.9996 124.5,41.9746 124.5,41.9426 L124.5,11.1966 C124.5,11.1386 124.575,11.1166 124.606,11.1646 L144.483,41.9736 C144.494,41.9906 144.512,41.9996 144.531,41.9996 L161.442,41.9996 C161.474,41.9996 161.5,41.9746 161.5,41.9426 L161.5,11.0576 C161.5,11.0256 161.526,10.9996 161.558,10.9996 L176.442,10.9996 C176.474,10.9996 176.5,11.0256 176.5,11.0576 L176.5,41.9426 C176.5,41.9746 176.526,41.9996 176.558,41.9996 L188.442,41.9996 C188.474,41.9996 188.5,41.9746 188.5,41.9426 L188.5,11.0576 C188.5,11.0256 188.526,10.9996 188.558,10.9996 L201.442,10.9996 C201.474,10.9996 201.5,11.0256 201.5,11.0576 L201.5,41.9426 C201.5,41.9746 201.526,41.9996 201.558,41.9996 L214.442,41.9996 C214.474,41.9996 214.5,41.9746 214.5,41.9426 L214.5,30.0576 C214.5,30.0256 214.526,29.9996 214.558,29.9996 L242.442,29.9996 C242.474,29.9996 242.5,30.0256 242.5,30.0576 L242.5,40.9426 C242.5,40.9746 242.526,40.9996 242.558,40.9996 L253.442,40.9996 C253.474,40.9996 253.5,40.9746 253.5,40.9426 L253.5,32.2406 C253.5,30.1926 253,29.4996 250.97,26.9756 L249.956,25.6136 C249.68,25.2416 249.653,24.7416 249.889,24.3426 L251.938,20.8746 Z" id="Fill-1" fill="#1478C7" mask="url(#mask-2)"></path>
            </g>
            <g id="Group-6" transform="translate(257.000000, 0.000000)">
                <mask id="mask-4" fill="white">
                    <use xlink:href="#path-3"></use>
                </mask>
                <g id="Clip-5"></g>
                <path d="M47.5,26.3936 C47.5,28.9376 45.437,30.9996 42.894,30.9996 L16.106,30.9996 C13.562,30.9996 11.5,28.9376 11.5,26.3936 L11.5,15.6066 C11.5,13.0626 13.562,10.9996 16.106,10.9996 L42.894,10.9996 C45.437,10.9996 47.5,13.0626 47.5,15.6066 L47.5,26.3936 Z M49.235,-0.0004 L9.765,-0.0004 C4.648,-0.0004 0.5,4.1486 0.5,9.2646 L0.5,31.7356 C0.5,36.8516 4.648,40.9996 9.765,40.9996 L49.235,40.9996 C54.352,40.9996 58.5,36.8516 58.5,31.7356 L58.5,9.2646 C58.5,4.1486 54.352,-0.0004 49.235,-0.0004 L49.235,-0.0004 Z" id="Fill-4" fill="#1478C7" mask="url(#mask-4)"></path>
            </g>
            <g id="Group-9" transform="translate(319.000000, 0.000000)">
                <mask id="mask-6" fill="white">
                    <use xlink:href="#path-5"></use>
                </mask>
                <g id="Clip-8"></g>
                <path d="M0.5,0.0576 L0.5,40.9426 C0.5,40.9746 0.526,40.9996 0.558,40.9996 L12.442,40.9996 C12.474,40.9996 12.5,40.9746 12.5,40.9426 L12.5,11.1906 C12.5,11.1336 12.574,11.1116 12.606,11.1596 L32.483,40.9746 C32.494,40.9906 32.512,40.9996 32.531,40.9996 L49.442,40.9996 C49.474,40.9996 49.5,40.9746 49.5,40.9426 L49.5,0.0576 C49.5,0.0256 49.474,-0.0004 49.442,-0.0004 L37.558,-0.0004 C37.526,-0.0004 37.5,0.0256 37.5,0.0576 L37.5,28.8066 C37.5,28.8636 37.425,28.8856 37.394,28.8376 L18.517,0.0266 C18.506,0.0096 18.488,-0.0004 18.469,-0.0004 L0.558,-0.0004 C0.526,-0.0004 0.5,0.0256 0.5,0.0576" id="Fill-7" fill="#1478C7" mask="url(#mask-6)"></path>
            </g>
            <g id="Group-12" transform="translate(373.000000, 0.000000)">
                <mask id="mask-8" fill="white">
                    <use xlink:href="#path-7"></use>
                </mask>
                <g id="Clip-11"></g>
                <path d="M0.5,40.9426 C0.5,40.9746 0.526,40.9996 0.558,40.9996 L11.442,40.9996 C11.475,40.9996 11.5,40.9746 11.5,40.9426 L11.5,0.0576 C11.5,0.0256 11.475,-0.0004 11.442,-0.0004 L0.558,-0.0004 C0.526,-0.0004 0.5,0.0256 0.5,0.0576 L0.5,40.9426 Z" id="Fill-10" fill="#1478C7" mask="url(#mask-8)"></path>
            </g>
            <path d="M440.5,9.3554 C440.5,4.1884 436.312,0.0004 431.145,0.0004 L399.535,0.0004 C393.993,0.0004 389.5,4.4934 389.5,10.0354 L389.5,30.9644 C389.5,36.5064 393.993,41.0004 399.535,41.0004 L450.442,41.0004 C450.475,41.0004 450.5,40.9744 450.5,40.9424 L450.5,30.0574 C450.5,30.0254 450.475,30.0004 450.442,30.0004 L403.791,30.0004 C401.974,30.0004 400.5,28.5264 400.5,26.7094 L400.5,14.2914 C400.5,12.4734 401.974,11.0004 403.791,11.0004 L427.067,11.0004 C428.411,11.0004 429.5,12.0884 429.5,13.4324 L429.5,14.9424 C429.5,14.9744 429.525,15.0004 429.558,15.0004 L440.442,15.0004 C440.475,15.0004 440.5,14.9744 440.5,14.9424 L440.5,9.3554 Z" id="Fill-13" fill="#1478C7"></path>
        </g>
    </g>
</svg>