<?xml version="1.0" encoding="UTF-8"?>
<svg width="66px" height="68px" viewBox="0 0 66 68" version="1.1" xmlns="http://www.w3.org/2000/svg" xmlns:xlink="http://www.w3.org/1999/xlink">
    <!-- Generator: Sketch 61 (89581) - https://sketch.com -->
    <title>Combined Shape Copy</title>
    <desc>Created with Sketch.</desc>
    <g id="highFidelity_2" stroke="none" stroke-width="1" fill="none" fill-rule="evenodd">
        <g id="Mvp/3d---addAOI3" transform="translate(-272.000000, -399.000000)" fill="#01426A">
            <path d="M284.59542,399 C290.865722,399 296.065877,403.54713 297.03048,409.499964 L337,409.5 C337.552285,409.5 338,409.947715 338,410.5 L338,413.5 C338,414.052285 337.552285,414.5 337,414.5 L296.825631,414.500482 C295.669083,419.159115 291.880553,422.78968 287.114871,423.749881 L287.114504,466 C287.114504,466.552285 286.666789,467 286.114504,467 L283.076336,467 C282.524051,467 282.076336,466.552285 282.076336,466 L282.076535,423.749995 C276.327281,422.591895 272,417.547465 272,411.5 C272,404.596441 277.639162,399 284.59542,399 Z" id="Combined-Shape-Copy" transform="translate(305.000000, 433.000000) scale(-1, -1) translate(-305.000000, -433.000000) "></path>
        </g>
    </g>
</svg>