<?xml version="1.0" encoding="UTF-8"?>
<svg width="66px" height="68px" viewBox="0 0 66 68" version="1.1" xmlns="http://www.w3.org/2000/svg" xmlns:xlink="http://www.w3.org/1999/xlink">
    <!-- Generator: Sketch 61 (89581) - https://sketch.com -->
    <title>Combined Shape</title>
    <desc>Created with Sketch.</desc>
    <g id="highFidelity_2" stroke="none" stroke-width="1" fill="none" fill-rule="evenodd">
        <g id="Mvp/3c---addAOI2" transform="translate(-35.000000, -135.000000)" fill="#01426A">
            <path d="M47.5954198,135 C53.8657216,135 59.065877,139.54713 60.0304796,145.499964 L100,145.5 C100.552285,145.5 101,145.947715 101,146.5 L101,149.5 C101,150.052285 100.552285,150.5 100,150.5 L59.8256309,150.500482 C58.6690832,155.159115 54.8805528,158.78968 50.1148712,159.749881 L50.1145038,202 C50.1145038,202.552285 49.6667886,203 49.1145038,203 L46.0763359,203 C45.5240511,203 45.0763359,202.552285 45.0763359,202 L45.0765351,159.749995 C39.3272808,158.591895 35,153.547465 35,147.5 C35,140.596441 40.6391615,135 47.5954198,135 Z" id="Combined-Shape"></path>
        </g>
    </g>
</svg>